<svg id="Слой_1" data-name="Слой 1" xmlns="http://www.w3.org/2000/svg" viewBox="0 0 1920 1920"><defs><style>.cls-1{fill:#e9edf5;}.cls-2,.cls-3,.cls-4,.cls-5,.cls-6{fill:none;stroke:#fff;stroke-linecap:round;stroke-linejoin:round;stroke-width:2px;}.cls-3{stroke-dasharray:19.82 4.96;}.cls-4{stroke-dasharray:20.17 5.04;}.cls-5{stroke-dasharray:20.55 5.14;}.cls-6{stroke-dasharray:20.01 5;}</style></defs><title>Монтажная область 1111</title><rect class="cls-1" width="1920" height="1920"/><path class="cls-2" d="M335.76,852.41a7.93,7.93,0,0,1-.82-11.46,17.94,17.94,0,0,1,8-5.12c7.2-2.23,13.78.67,17.41,3.56,1.92,1.53,3.67,2.92,3.94,5.08.67,5.26-7.7,12-15.89,12.46A18.29,18.29,0,0,1,335.76,852.41Z"/><path class="cls-2" d="M277.22,838.94c1.13-6.9,3.08-18.84,12.58-28.21,3.39-3.34,12-10.56,45-13.16a260.68,260.68,0,0,1,48.24.76c44.94,4.67,94,7.31,126.59,0,33.28-7.44,35.3-8.81,43.28-8,17.15,1.73,29.61,11.45,54.53,30.88,27.69,21.6,33.21,33.67,35.08,42.71.72,3.49,2.79,13.54-2.67,19.45-4.54,4.9-30.65,14.26-98.76,7.62-50.88-5-53.93-10-85.79-9.53-11.27.16-25.69.37-44.62,3.81-30.46,5.54-43.25,14.12-76.64,17.92-16.82,1.92-25.4,2.8-33.17-1.14C280.48,891.72,273.58,861.19,277.22,838.94Z"/><path class="cls-2" d="M254,866.78c2.64-50.19-6.66-54.42.76-66.16,11.9-18.82,44.5-21.68,82-25,7.95-.7,15.62-.83,16.14-.83,13.65,0,24,1.88,39,2.9,23.36,1.6,78.49,5.37,122.21-17.52,47-24.6,58.87-68.51,74.35-62.91,11.81,4.27,2.56,28.93,19.83,66,10.65,22.85,26,38.77,46.27,59.87,19.59,20.37,30.73,27.3,41.94,48,8,14.88,15.37,28.43,10.68,38.39-6.39,13.54-32.42,14.92-114.4,7.62-77.73-6.91-124.78-14.43-168-11.69-45.26,2.86-83,16.74-87.19,18.3h0C261,950.61,254.36,954.43,248,949.2c-8.29-6.79-.64-24.9,3.32-48.79C252.6,892.58,253.05,884,254,866.78Z"/><path class="cls-2" d="M226.89,878c3.91-37-29.49-51.5-19.07-75.5,8-18.37,34.6-26.12,54.91-32,14.23-4.14,25.42-5.22,35.84-6.1,72.84-6.18,89.24-1.3,119-8.39,25.83-6.17,42.83-16.87,63.29-29.74,74.44-46.85,86.58-108.2,118.21-103.72,20.32,2.88,32.58,30.36,39.27,45.38,16.74,37.53-.16,52.88,13,93,9.69,29.65,27.51,47.58,51.86,72.06,23.77,23.91,43.5,43.19,69.39,41.18,4.6-.35,16.19-1.25,25.93-9.53,23.37-19.84,2.13-53.16,22.5-83.89,13.27-20,41.21-34.43,64.06-27.83,24.67,7.12,34.64,36.22,36.6,41.94,8.55,24.94-2.28,33.89-2.28,84.65,0,25.72,2.78,25,2.28,51.86-.71,39.2-1.38,59.92-16,71.69-15.67,12.6-38.82,8.07-45,6.86-15.31-3-23.29-10.08-39.66-20.59,0,0-12.8-8.22-57.2-29.74-39.38-19.09-78.22-14.84-116.68-14-135.87,3-153.47-38.86-248.61-20.53-25.52,4.91-63.7,15.53-108.1,41.75-18.56,12-35.1,14.34-43.66,14.87-9.74.61-20.29,1.27-29.74-5.34-12.23-8.54-14.59-23.33-15.25-27.45C196.91,918.8,223.53,909.76,226.89,878Z"/><path class="cls-2" d="M870.91,790.14c10.56-.69,20.15,13.8,20.78,26.5.67,13.33-8.39,28.3-18.11,28.6-10.89.33-22-17.73-19.83-33.18C855.05,802.71,861.69,790.74,870.91,790.14Z"/><path class="cls-2" d="M819.05,936.37c1-11.94,13.61-20.78,24.22-28.22,10-7,16.81-11.78,24.59-10.29,14.87,2.84,23.73,26.93,21.92,45.94-.4,4.23-2.27,24-15.63,30.51C853.71,984.27,817.27,957.89,819.05,936.37Z"/><path class="cls-2" d="M206.17,1141.64c.2-3.59,1.12-19.69,14.87-28.86,1.14-.76,13.07-8.44,26.94-4.32,16.46,4.9,26,23.56,24,40-.22,1.75-3,21.13-20.64,28.48-10.27,4.28-23,3.41-32.54-3.81C205,1162.76,206,1145.44,206.17,1141.64Z"/><path class="cls-2" d="M189.77,1121.55c2.76-6,10.21-22.42,28.47-30.75,25.21-11.51,49.46,2.15,51.86,3.55,19.07,11.17,25.24,29.69,26.95,35.08,7.3,23.13,1.43,50.42-16.53,68.13-3.47,3.43-20.59,20.32-45.5,18.3-17.6-1.42-29.47-11.49-34.06-16C180.05,1179.3,179,1145.31,189.77,1121.55Z"/><path class="cls-2" d="M179.09,1111.89c9.15-14.12,17.41-26.9,34.07-34.82,32.3-15.37,65.53,2.07,69.65,4.32,19.41,10.58,29,26.33,32.54,32.28a91.27,91.27,0,0,1,12.45,39.91,92.65,92.65,0,0,1-7.62,43.47c-2.66,6-22,47.9-64.06,53.39-29.84,3.89-52.56-13-61.77-19.83-9-6.66-30.71-22.82-35.85-50.84S168.08,1128.92,179.09,1111.89Z"/><path class="cls-2" d="M156.72,1124.35c12-22.29,10.65-24.67,18.31-33.94,14-17,31.55-24.56,38.13-27.07,43-16.43,83.08,6.62,87.32,9.15,19.06,11.39,28.09,25.65,46.14,54.15,16,25.29,24.44,39,21.35,55.67-1.54,8.26-10.71,19.34-29,41.18-15.36,18.36-23,27.53-31.65,34.7-14.28,11.88-29.63,24.66-52.62,27.45-24.11,2.93-43.42-6.74-48.81-9.53-4.37-2.26-3.64-2.38-35.46-26.69-20.27-15.49-24.92-18.77-32.79-19.45-14.45-1.23-21,7.93-28.6,3.43-8-4.72-9-19.73-6.1-30.5,3.11-11.67,9.73-14.39,22.12-28.6S144.18,1147.57,156.72,1124.35Z"/><path class="cls-2" d="M74.62,1234.93c-9.6-27,27.57-63,30.58-65.85,6.78-6.42,11.17-8.86,15.17-16.51,7.07-13.49,1.25-20.83,6.61-36.61,2.71-7.94,4.87-8.1,19.32-28.47,15.79-22.24,14.8-24.3,20.34-30.5,13.9-15.58,34-18.18,61.52-21.36,35-4,50.53,1.82,100.15-1.52,13.68-.92,23.39-2.09,34.07-7.63,13.1-6.79,16.18-14.2,30-20.33,11.94-5.3,23-5.38,29.49-5.6a91.15,91.15,0,0,1,28.72,3.31c15.58,4.51,16.72,9.95,39.91,22.62,15.11,8.26,23.89,13,36.1,14.75,15.85,2.2,24.95-2.56,37.19-5,31.56-6.23,40.66,11.66,84.32,18.7,44.93,7.25,50.69-9.2,85.67,2.29,8.79,2.89,48.79,16,51.35,43,1.37,14.46-8.18,31.44-21.61,37.62-18.58,8.57-43.18-4.14-73.72-9.66-21.41-3.86-21.33-2.88-39.66-6.61-28.44-5.77-42.66-8.66-53.38-13.72-8-3.78-3.52-3.07-25.16-17-30.71-19.82-38.46-20.44-42.71-20.34-6.83.16-14.3,4.43-29.23,13-17.36,9.92-28.88,19.27-40.17,28.47-15,12.25-19.61,17.9-21.86,20.85-6.95,9.09-10.31,17-12.87,22.75-8.14,18.35-18.25,38.16-25.26,50-14.36,24.17-31,40.44-44.23,53.38a255.53,255.53,0,0,1-25.93,22.88c-24.78,18.74-50.27,38-79.31,36.61-34.09-1.65-67.63-31.51-81.35-43.72-10.13-9-18.19-18.18-32.54-20.34-16-2.42-24,6.3-38.63,1.52C88.93,1253,78.43,1245.67,74.62,1234.93Z"/><path class="cls-2" d="M855.28,1300.9c2.91-5.53,11.19-20.71,29-28.22,5.68-2.4,15.89-6.71,26.31-3.43,18.66,5.86,29.4,33.33,24.78,56-4.74,23.36-25.28,39.46-45.76,42.71-4.44.7-24.36,3.85-36.22-8.39C834.94,1340.6,854.08,1303.17,855.28,1300.9Z"/><path class="cls-2" d="M845,1268.1c12.43-20.85,15.41-25.16,17.88-28.58,11.95-16.53,14.75-16.14,16.57-22.89,3.32-12.36-3.38-24.34-16.78-48.3-9.4-16.8-13.41-19.77-17.29-32.16-4-12.94-2.8-19.69-4.06-28.34-4.32-29.5-33.19-49.07-48.94-59.74-25.9-17.56-50.82-22.29-74-26.69-24.59-4.67-23.91-1-52.24-5.34-44.15-6.7-48.95-16-88.08-21.35-34-4.65-30.33,2.39-62.54-2.67-38.33-6-44-16.06-79.31-18.3-14.71-.94-33.21-1.94-54.52,5.71s-19.62,14.58-41.57,24.41c-24.26,10.87-46.52,11.46-74,12.2-10.07.27-22.94-.58-48.68-2.29-40.83-2.7-44.54-4.74-47-6.48-20.74-14.47-22.38-53.43-15.5-80.46,9-35.54,30.23-40.27,27-63.66-3.22-22.95-25.07-28.54-24.41-52.76.45-16.72,11.24-28.44,13.22-30.51C183,767,199.37,765.54,218.5,763.13c25.4-3.21,50.24-10.46,75.75-12.71,49.92-4.41,102.37-20.13,132.82-34.07,99.32-45.45,110.6-138.66,170.83-133.07,15.5,1.44,34.77,9.47,47.66,24,14.58,16.46,14.94,34.38,19.06,59.87,5.59,34.49,15.34,74.14,40,108.29,10,13.79,31.69,43.8,51.1,39.65,22.1-4.73,16.55-48.5,58.34-84.27,17.32-14.82,31.88-19,37-20.21,6.4-1.57,18.39-3.57,53,4.2,44.33,9.94,65.13,20.64,72.71,25.42,16,10.07,30.63,19.31,36.35,36.35,4.62,13.77.32,23.42-6.87,49.19,0,0-24.58,90.16-12.58,122.78a183.39,183.39,0,0,0,13,26.69c10.6,17.64,16.78,20.44,22.87,30.12,9.4,14.93,3,21.52,2.93,80.59-.06,29.45,1.49,40.36-6.61,54.4-5.28,9.15-10.67,12.7-21.48,22.11-31.07,27.06-46.61,40.59-52.62,58.34-3.32,9.79,1.78,33.52,12.58,80.46,7.19,31.25,11.44,40.11,6.48,53-8.29,21.57-33.09,30.33-53,37.37s-53.33,18.84-81.22,1.52c-4.75-3-21.15-14.08-25.93-33.93-3.35-14,.69-25.28,6.1-40.42C819.7,1310.61,828.16,1296.33,845,1268.1Z"/><path class="cls-2" d="M716.1,259.34c1.37-2.41,1.18-6.87-.38-9.73a11.5,11.5,0,0,0-3.83-4.43c-3.3-2-6,.43-7.48,2.86a7.75,7.75,0,0,0-1.47,4.3c0,4.47,4.14,10.28,7.83,10.75C713.16,263.39,714.93,261.41,716.1,259.34Z"/><path class="cls-2" d="M741,248.64c-1-5.8-2.76-15.83-7.41-23.87-1.65-2.86-5.73-9.14-20-11.86a54.69,54.69,0,0,0-20.74,0c-17.45,3.32-38.25,6.18-54.78-.34-14.2-5.59-15.48-7.32-18.72-6.41-11,3.06-18.39,18.23-24.71,27.3-7.6,10.9-15.15,23.06-17.37,36.39-.49,2.9-2.1,12.12.44,16.17,7.48,12,34,7.79,46.28,5.65,12.49-2.17,26.31-8.49,39.59-8,5.18.18,12,.31,20.7,3.41,12.54,4.44,23.53,12.79,36.83,15.62,8,1.69,12.54,2.38,15.29-.93C746.81,289.21,743.85,264.62,741,248.64Z"/><path class="cls-2" d="M753.9,272.25c-2.46-16.82-.29-39-5.8-55.14-5.1-14.93-22.39-19.87-36.07-22.69a59.69,59.69,0,0,0-6.9-1c-5.81-.22-10.23,1.18-16.55,1.93-20.28,2.42-38.25-2-52.25-14.94C628.28,173,609.68,128,605.6,130c-6.82,3.45-6.29,40.29-9.89,55.25-4.32,17.92-13.22,34.88-22.26,51.07-7.49,13.42-16.18,26-21.66,40.39-3.61,9.49-9.58,21.66-7.76,31.4,3.24,17.31,43.57,8,55.05,6.12,25.43-4.06,54.84-13.72,79.81-9.78a118.54,118.54,0,0,1,42.67,15.87h0c8.56,5,42.63,26.58,46.45,21.17,4.38-6.2-5.68-28.44-8.9-41.06C757.45,293.93,756,286.54,753.9,272.25Z"/><path class="cls-2" d="M767.38,281.86c-4.36-20.76,7.17-41.94.94-61.89-4-12.77-14.13-21.45-25.05-28.05a46.65,46.65,0,0,0-15.36-6.08c-15.39-3.29-36.1-1.94-50.54-9.05-11.07-5.45-19.47-15.41-26.7-25.11-13.25-17.78-21.88-37-30.48-57.62-3.5-8.39-10.56-26.76-17.73-24.46-9.36,3-14.39,26.41-17.56,39.14-6.23,25.06-2.19,51.65-7.84,76.45C572.1,207,563,226.7,551,245.91c-7.6,12.19-19.29,35.09-35.17,34.57a13.27,13.27,0,0,1-11.24-6.9c-9.88-18,3-43-2.86-63.27-3.08-10.71-14.64-23.7-26.14-15.84-10.26,7-15.71,21.31-19.89,33-6.7,18.65-6.14,40.44-10.22,59.66-2.61,12.29-7.14,24.36-10.34,36.55-3.82,14.5-14.17,37.3-7,51.51,5,10,19.46,8.42,23.11,7.88,9-1.34,14.89-6.41,25.4-13.75,11.29-7.3,23.08-15,34.22-21.36,19-10.82,38.67-10.88,60.36-9.71,24.27,1.31,45.71-4.29,69-13,18.08-6.77,33.36-10.25,52.31-3.67,21.49,7.47,40.78,21.24,57.49,35.51,11.06,9.44,20,11.7,24.45,12,5,.32,10.5.63,13.86-5.1,4.34-7.43,2.45-19.76,2-23.18C787.42,319.29,771.79,302.89,767.38,281.86Z"/><path class="cls-2" d="M478.79,220.55c-4.64.2-10.29,11.36-12,20.58-1.78,9.68.51,20.14,5,20,5-.16,12.13-14,12.66-25.4C484.76,228.85,482.85,220.39,478.79,220.55Z"/><path class="cls-2" d="M485.87,328.81c1.39-8.9-3.85-16-8-21.55-3.88-5.22-7.05-9-10.48-7.56-10.51,4.3-16.22,22-18.53,33.4-.61,3-3.3,18.67,2.3,22.7C463.65,364.78,483.92,341.26,485.87,328.81Z"/><path class="cls-2" d="M839.6,505c-4-9.28-10.11-18.31-18.59-23.85-.9-.59-11.07-6.62-17.51-2.05-10.45,7.41-8.17,25.72-3.56,36.79,4,9.64,12,20.18,22.2,23.8,8.25,2.94,16.61,1,20.38-6.17C848,523.18,841,508.28,839.6,505Z"/><path class="cls-2" d="M846,477.22c-9.16-10-19.24-22.62-31-27.43-12.82-5.25-28.3-5.54-39,7.2-7,8.42-10.45,19.23-12,30a106.6,106.6,0,0,0,1.26,36.37,113.32,113.32,0,0,0,15.9,39c13.93,21.06,38.64,44.52,63.19,43.22,16.25-.86,29.36-9,37.72-24.64,7.93-14.85,9.26-32.82,3.15-48.15C876.81,511.47,861.62,494.25,846,477.22Z"/><path class="cls-3" d="M864.13,485.77c-7.83-8.72-14.48-19.31-22.94-27.09-8.87-8.15-19-17-30-20.7-17-5.77-34.81-3.56-47.27,11.79-10.9,13.42-12.83,33.44-16.36,49.94s-8.79,35.39-2.53,51.14c5.48,13.81,19.24,25.81,29.8,36.49,10.37,10.5,21.11,21.31,33.43,29.71,14.69,10,33.4,21.35,50.83,19.91,12.78-1.05,26.41-4.45,34.48-14.73,6.06-7.73,10.15-18.87,14.73-28.4,7.83-16.31,9.32-19.81,14.7-21.63,9.87-3.34,19.46,3.11,22.58-1.94,3.28-5.3-4.18-17.76-11.63-26.11-7.86-8.81-19.25-13.81-28.84-20.29C889.75,513.45,876.49,499.53,864.13,485.77Z"/><path class="cls-2" d="M971.59,565.08c-8.32-21.59-36.33-37-55.77-48.25-7.46-4.31-11.47-5.74-17.39-11.55-8.57-8.41-12.29-20.13-19.44-29.45-6.23-8.11-14.84-14.58-22.1-21.84-7.65-7.65-14.22-16.26-21.57-24.07C825,419,810,416.22,795.8,414.8,778,413,759,417.35,741.24,416.42c-7.44-.39-13.08-1.44-19.59-6.24-8-5.9-10.52-12.48-18.45-17.87-6.85-4.65-12.58-4.69-16-4.87a28.54,28.54,0,0,0-14.84,2.95c-7.9,4-8,8.87-20.07,19.91-7.84,7.2-12.59,11.31-19.34,12.57-8.77,1.64-14-2.75-20.71-5.19-16-5.84-33,11.19-48.3,13.69-16.54,2.71-33.9-8.53-49.57-2.59-14.58,5.52-32.56,14.81-37.74,31.05-3.45,10.8-2,25.94,6.42,32.91,11.54,9.61,34.29.84,48.86-1,13.91-1.71,14-.7,25.78-2.81,11.31-2,24-3.39,34-9.18,5-2.89,2.53-2.63,15.65-14.15,7.39-6.49,16.14-16.37,25-16.82,3.44-.18,8.33,4.3,17.53,12.27s17.79,17.18,26.06,26.3c10.21,11.24,14,16.38,15.72,19.07a153.55,153.55,0,0,1,11.13,20.74c7.32,15.62,15.41,31.48,25,45.53,12.27,17.92,27.41,33.61,44.09,47.78a235.94,235.94,0,0,0,26.57,19.59c21.81,13.78,50.81,31.3,78.06,25.66,24-5,37.85-29,45.49-50.56,3.32-9.4,5.16-19.22,14.56-22.82,9.13-3.5,21.89,0,30-5.88C971.4,583,975.12,574.23,971.59,565.08Z"/><path class="cls-2" d="M371.74,605.29c-.73-10.91-4.88-21.51-13-29-3.57-3.29-10.08-9.31-19.47-9.69-18.07-.72-38.35,15.45-45.15,31.84-7.4,17.82,5.72,38,20.93,46.59,10.24,5.81,24.77,10.19,36.41,5.82C369.29,644.11,372.87,622,371.74,605.29Z"/><path class="cls-2" d="M391.37,582.72c-2.93-19-3.54-22.89-4.25-26-3.46-15.24-5.64-15.65-4.54-20.89,2.77-13.2,17.8-24,27.24-33C417,495.92,425,489.37,430.32,481c6-9.36,6.88-14.83,9.82-21.3,8.44-18.63,25.46-32,41.93-42.3a127.94,127.94,0,0,1,45.52-17.59c14-2.6,13.56,0,29.16-2.45,16.91-2.66,31.76-12.78,48.2-16.25,10.93-2.31,21.85,1.56,32.79-1.53,13.5-3.81,25.8-14.45,39.91-15.69,7.24-.63,16.54-1.68,28.2,4.87,9.62,5.41,15.32,15,24.46,21.07,12.23,8.13,26.76,9.58,40.9,9.29,5.29-.11,12-1.12,25.11-3.44,20.77-3.69,22.14-5.66,22.9-7.18,9.07-18.22-3.91-48.45-10.89-66.43-6.51-16.75-21.51-33.64-22.69-51.93-.92-14.31,7-27.95,4.87-42.15a85.32,85.32,0,0,0-7.86-25c-6-10.91-13-12.72-21-15.54-10.73-3.82-21.17-10.12-32.27-13.09a137.94,137.94,0,0,1-56-30.94C653.44,124.8,643,98.05,633,73.19c-4.41-10.91-13.2-40.21-29.35-35.36-10.08,3-16.39,14-20.89,22.56-7.41,14.13-7.37,33.22-9,49.48-3.1,30.35-8.7,61.41-20.48,89.63-4.22,10.09-17.42,36.26-24.88,34-10.78-3.33-9.61-45.38-20.62-61.63-6.62-9.77-12.89-11.33-15-11.74-2.69-.52-8.05-.78-23.06,8.74-11.69,7.42-23.58,15.6-33.2,25.88-7.77,8.3-15.3,17.11-19.57,27.81-3.93,9.86-3.18,21.15-3.57,31.4-1,25.5-4.15,57.9-18.7,79.71a132.65,132.65,0,0,1-13.81,16.69c-10.55,10.73-14.95,12.06-21.4,17.47-13.92,11.7-21,34-30.27,49.29-6.86,10.51-17.08,21.75-18.19,34.59-.57,6.64,1.53,10.13,4.8,18.56,6,15.54,16.85,35.61,12.25,51.29C322.27,541,297,558.61,281.3,572c-10.26,8.74-29,18.67-33.07,32.7-5.34,18.58,17.25,36.62,29.43,46.78,22.58,18.83,47.72,33.2,76.38,30.72,12.62-1.09,27.94-8,36.08-18.88,7.21-9.59,7.7-22.68,7.8-33.88C398.06,614.3,393.73,598,391.37,582.72Z"/><path class="cls-2" d="M239.27,1470.85c-2.42-2.07-2.69-7.21-.53-11.06a24.19,24.19,0,0,1,5.42-6.69c4.66-3.83,8.2-3,10.06-1.54a4.14,4.14,0,0,1,2,3.39c.29,4.66-3.8,14.18-8.72,17.07C244.26,1473.9,241.36,1472.63,239.27,1470.85Z"/><path class="cls-2" d="M191.45,1460.33c1-6.71,2.24-18.73,9.64-27.93,8.65-10.75,27.1-11.69,39.1-15.05a156.69,156.69,0,0,0,28.95-10.86c20.55-10.46,33.88-33.81,54.07-44.77,10.9-5.91,26-10.23,38.92-9.9,13.61.34,24.24,8,35.49,14.91,14.15,8.62,28.88,19,38.42,32.92,2.07,3,8.68,13.75,5.83,15.94-4.74,3.65-16.25,1-23.8.06-25.75-3.23-53.27-11.94-77-8.7-19.16,2.63-37.35,12.49-48.25,31-5.68,9.67-10.54,20.19-15.2,30.42-9.7,21.32-19.2,41.48-38.69,52.86-8.28,4.83-20.32,7.08-29.33,1.8C189.8,1511.46,188.45,1480.92,191.45,1460.33Z"/><path class="cls-2" d="M174.18,1485.62c2.28-19.06-2.3-44.79,3.77-63.18,8.15-24.66,45.49-22.46,65-26.53,6.34-1.32,11.88-3,12.25-3.14,9.59-2.46,15.44-3.39,22.76-7.08,26-13.07,47.08-36.44,73-50.23,23.53-12.54,50-22.23,71.1-39.31,8.38-6.77,26.38-23.59,29.08-21.8,4.51,3-17.88,43.45-24,56.9-7.36,16.19-1.36,24.37,10.14,35.63,17.45,17.11,38.87,32,56.53,50.13,13,13.35,36.71,32,38.64,48.06,1.14,9.57-19.39,3.21-25.74,1.16-34.4-11.06-67.68-27.63-101.76-37.18-29.29-8.22-61.55-16-88.16,4.7-13.94,10.84-23,27.4-30.88,42.78-12,23.32-24,46.47-43.75,64.24h0c-11.65,8.51-67.65,36.74-79.59,19.8-7.06-10,3.64-32.66,6.64-44.45C171.71,1506.32,173,1495.73,174.18,1485.62Z"/><path class="cls-2" d="M156,1492.59c6-22.58-5.09-45.63.14-68.24,3.4-14.73,12.84-25.81,26.38-32.06,8.39-3.86,16.91-5.41,25.68-6.32,31.82-3.28,63.86-5.4,88.62-28,16.93-15.44,32.79-32.77,49.84-47.84,32.05-28.33,69.76-53.33,100.49-83.9,8.52-8.48,27.89-37.47,36.86-33.55,9.39,4.1,5.18,34.36,3,46.66-5.34,29.89-20.93,55.9-32,82.55-10,24,8.52,39.27,25.3,54.07,23.47,20.7,60.49,58,94.9,57.65,4.59,0,17.11-.86,19.35-12.26,6-30.59-40.68-74.38-16.73-103.81,16-19.7,47.89-27.6,71.47-18.69,20.18,7.63,31,26.75,39.06,45.78,13.37,31.42,16.95,65.83,31.91,97.28,10,21,22.89,41.11,31.43,62.76,9.5,24.07,22.27,57.16,7,81.73-6.06,9.77-18.72,16.24-30.06,16.33-10.47.08-20.95-8.47-29.09-13.9-22.16-13.25-45.15-24.78-67-38.67C585,1519.85,533.94,1497,481.8,1475.45c-42.4-17.52-104-51.87-151.32-31.71-28.37,12.07-39.26,42.2-52.5,67.59-18.74,35.94-42.71,58.92-78.78,75.13-12.53,5.63-24.65,9.23-38.71,5.39-8.24-2.25-17.15-5.24-24.42-14.84a47.76,47.76,0,0,1-9.24-30.15C127.48,1525.13,150.65,1512.94,156,1492.59Z"/><path class="cls-2" d="M631.78,1332.16c13.12,1.27,24.22,19.43,28.52,32,2.85,8.35,5.67,33-4.95,33.23-13.89.35-34.11-26.56-37.36-42.92C616.09,1344.94,621.19,1331.14,631.78,1332.16Z"/><path class="cls-2" d="M675.11,1524.12c-5.34-13.08-5.17-26.35-.63-40.9,3.17-10.15,5.72-17.5,13.19-15.67,22,5.38,39.82,36.88,47.37,57.2,4.41,11.86,8.43,29.26,1.4,39C721.54,1584.5,680.45,1537.2,675.11,1524.12Z"/><path class="cls-2" d="M240.54,1738c-2.65-3.47-15.47-18.54-10.68-22.46.4-.32,4.46-3.48,22.55,4.47,23,10.07,48.72,25,63.71,45.38,1.24,1.68,12,21.78-3.4,24.24-13.94,2.23-27-6.61-37.51-14.47C262.07,1765.35,250.8,1751.42,240.54,1738Z"/><path class="cls-2" d="M205.63,1711.3c-2.47-4.51-9.57-17.18-.88-18.07,16.55-1.71,38.26,10.79,53.83,18.15,22.79,10.77,45.93,23.2,65.48,38.57,17.26,13.58,50.8,46,24.93,66.84-13.23,10.64-35.2,9.57-51.07,4.5-13.85-4.42-27.11-13.92-36.25-24.91C240.86,1771.35,221.46,1740.19,205.63,1711.3Z"/><path class="cls-4" d="M185.61,1697.3c-2.89-9-6.93-18.09.55-19.19,21.31-3.12,49.69,13.79,70.07,22.58,23.56,10.17,47.51,21.1,69.16,34.37,18.14,11.12,36.37,23.72,50.18,40.33,10,12,18.4,27.89,13.2,43-9.63,28-53.17,29.93-78.84,26.77a108.29,108.29,0,0,1-60.69-28.41c-19.35-17.81-31.34-39.83-42.38-63.48C198.32,1735,191.73,1716.39,185.61,1697.3Z"/><path class="cls-2" d="M96.27,1751.06c-11.15-25.4,16.55-38.69,37.57-42.72,6.91-1.32,12.32-1.18,12.81-5.17,1.14-9.25-10.9-19.53-15.55-28.17-2.76-5.13.54-3.71-1.14-15.13-1.84-12.47-5.48-16.14-4.74-19.21,2.63-11,30.49-.47,38.07,1.55,30.17,8,58.48,18.08,89.83,11.23,9-2,18.41-10.92,20.62-19.88,3.15-12.77,3.62-26.84,8.58-39.17a188.45,188.45,0,0,1,14-27.89c2.31-3.78,7.59-13.28,14.6-19,8.46-6.9,10-3.67,27.3,1.8,8.83,2.8,20.34,7.84,30.22,6.94,12.35-1.13,21.24-9.94,33.15-12.13,33.32-6.13,74,41.93,100,56.3,29.18,16.15,65.29,18,94.2,36.1,12.66,7.9,45.8,24.74,37,43.43-6.09,12.87-21.73,23.2-34,29.85-16.39,8.91-36.28.6-52.55-3.32-9.55-2.3-19.74-3.69-29.14-7-16.47-5.83-33.9-12-47.9-23-11.84-9.24-21.54-22.57-32.24-32.82s-40-41.39-51.43-36.53c-7.45,3.17-9.08,21.06-10.24,31.81-2.17,20.11,1.43,41.66,6.5,61.55a280.46,280.46,0,0,0,12.17,37.22c4.53,11,9.72,22,14.24,32.94,7,16.87,16.59,37.88,12.62,55.56-3.24,14.44-10,24.76-26,28.62-6.11,1.47-14.63,3-28.24,3.89-31.31,2.09-63.22,5.14-94.56,5.83-25.37.57-44.73-11.5-61.5-29.12-10.32-10.84-20.6-20.31-33.42-27.6-15-8.54-34-10.21-48.55-19.47C115.23,1780,102.67,1765.64,96.27,1751.06Z"/><path class="cls-2" d="M688.88,1832.23c1.58-3.07,6.68-11.7,23-16.17,5.2-1.42,14.64-3.9,25.62-2,15,2.53,36.29,15.73,36.74,32.15.47,17.76-25.23,25.75-38.43,28.06a58.33,58.33,0,0,1-37.37-6.12C685.59,1861,682.77,1844.05,688.88,1832.23Z"/><path class="cls-2" d="M671.64,1813.32c8.32-12.63,11-16.3,13-18.75,9.61-11.86,12.92-12.25,14.08-17.91,3-14.5-8.7-31.68-14.17-44.8-6.07-14.55-8.57-16.7-8.12-26.34.46-10.08,4.32-15.26,6.61-21.58,6.77-18.71-7.34-32.61-21.13-42.2-24.17-16.8-52-31.38-77.77-46.52-21.42-12.57-44.44-23.24-65.57-36.22-36-22.11-71.43-56.78-111.09-69.31-21-6.65-38.7-5.19-58.69,2.89-19.78,8-34.05,18.11-46.77,35.92-10.32,14.45-19.06,30.76-28,46.37-8.47,14.8-15.32,32.48-26.63,45.32-15.54,17.65-42.14,17.24-63.28,12.24-14.75-3.48-28.75-9.93-42.37-16.34-13.39-6.31-30.45-13.3-41.15-24-20.7-20.61-19.56-54.05-2.86-76.25,10.29-13.67,32.27-23.54,36.62-41.18,3.44-14-2.69-28.94.24-43.49,2-9.78,4.52-19.6,7.33-29,4-13.49,10.3-15.18,18.25-17.64,14.73-4.55,29.15-10,44.52-12.49,45.84-7.31,76.42-23.09,109.63-56.43,38.85-39,75-80.66,112-121.43,11.77-13,40.62-50.43,61.94-42.4,10.15,3.82,12.91,16.28,14.58,25.12,3.45,18.24-2.32,39.84-6.68,58.37-6.1,25.9-22.5,60.85-14.65,87.22,4.51,15.17,23.63,37.66,38.29,32.61,9.62-3.31,10.8-23.55,15-34.09,8.43-21.26,21.22-38.2,39.4-49.11a99.25,99.25,0,0,1,43.13-13.68c20.43-1.46,41.82,5.41,61,11.32,26,8,54.64,16.72,77.76,32.24,13,8.72,28.3,19.91,32.3,35.85,3.88,15.46-2.82,32.67-4,48.27-3.15,40.76,8.59,91.51,27.78,127.24,6.94,12.92,15.1,25.41,15.1,25.41,6.59,9.82,14.73,18.53,21.09,28.37,12.9,20,3,58.68,2.76,80.49,0,17.6,2.37,38.48-6.78,54.28-5.06,8.72-14.09,15.56-21.6,22-17.62,15.21-45.79,34.49-51.33,56.44-4.27,16.89,16.09,39.37,26.68,52.26,6.76,8.22,20.68,20.86,17,32-5.64,17-32.76,24.13-49,29.33-26.13,8.37-55.56,16-81.15,1.39-11.65-6.63-22.6-15.77-29.26-27.29-5.5-9.51-4-17.47-1.39-25.44C657.51,1832.38,665.46,1822.7,671.64,1813.32Z"/><path class="cls-2" d="M1104.57,1633c-.91,2.12-4,4.25-6.66,4.67a9.54,9.54,0,0,1-4.88-.31c-3-1.19-2.77-4.22-1.89-6.41a6.58,6.58,0,0,1,2.11-3.16c3-2.27,8.92-2.45,11.11-.23C1105.77,1628.94,1105.35,1631.12,1104.57,1633Z"/><path class="cls-5" d="M1110.07,1654.91c-4.37,2.21-11.92,6.18-19.61,7.16-2.74.35-9,.82-18-7.3A47.39,47.39,0,0,1,1062,1641c-7-13.38-14.75-28.24-28-36.21-10.94-6.6-12.9-6.68-13.75-9.19-3-8.87,2.54-20.79,5.62-30.24,3.31-10.13,7.74-21.9,15.37-30,1.7-1.79,7.1-7.64,11-7.9,11.6-.78,21.9,18.13,27.19,27.89,5.16,9.54,7.6,21.67,14.72,30.36,2.74,3.35,6.29,7.89,12.75,12,9.17,5.85,20.51,9.21,29,16.56,5.17,4.45,8,7.16,7.13,10.63C1139.93,1637.88,1122.15,1648.8,1110.07,1654.91Z"/><path class="cls-2" d="M1132.28,1651.52c-13,7-25.66,19.71-39.56,24.07-12.67,4-24.36-4.44-33.34-12.48-2.12-1.89-4-3.94-4.14-4.08-3.09-3.76-4.36-7.39-7.1-12-8.78-14.72-20.81-24.26-36.39-27.15-9.38-1.73-48.33,8.32-49,5.11-1.15-5.29,22.77-23.52,31.69-34.54,9.7-12,16.45-26.47,22.64-40.64,5.06-11.59,9.07-24,15.86-34.84,5.78-9.28,11-18.45,16.93-21.06,13.92-6.08,27.08,24.19,31.94,33.47,10,19.07,18.77,42.7,33.92,58,8.82,8.89,20.27,15.67,32.15,20.32h0c8.15,3.39,39.09,14.63,37.59,20.13-1.61,5.9-22.36,11-31.78,14.89C1148.5,1642.85,1143,1645.74,1132.28,1651.52Z"/><path class="cls-2" d="M1145.49,1655.6c-15.68,7.66-24.32,26-40.63,32-10.49,3.83-21.4,1.47-31.32-2.44a40.31,40.31,0,0,1-11.82-7.13c-10.62-8.84-19.33-22.57-31.59-29-8.53-4.46-20.66-5.32-30.2-5-18.65.58-35.73,4.3-53.71,8.93-6.87,1.77-23.19,6.47-25.22.61-2.72-7.83,10.13-23.25,17.1-31.48,13.67-16.17,32.33-28.31,46.8-43.93,12.5-13.49,20.64-31,27.12-48.06,4.37-11.51,13.7-30.24,5.16-40.87a11.12,11.12,0,0,0-10.28-4c-16.41,2.35-28.57,23-43.48,30.14-7.91,3.8-23.51,1.27-23.77-9.34-.25-10.28,6.08-21.13,11.83-29.91,9.08-13.87,23.8-24.27,34.47-37,6.77-8.09,12.56-17.07,19-25.37,8-10.3,17.48-28,30.69-30.72,9-1.83,15.45,8.67,16.93,11.36,3.69,6.68,3.29,13.14,3.73,23.84.85,11.19,1.6,23.08,3.14,33.54,2.7,18.4,12.08,30.42,24.12,45,12.9,15.65,20.32,32.65,26.31,52.51,4.67,15.48,9.91,27.37,24,36.57,16,10.43,34.68,16.28,52.7,20.2,11.84,2.58,17.92,7.39,20.34,10.18,2.77,3.17,5.74,6.65,3.63,11.78-2.73,6.65-11.87,11.64-14.39,13.06C1180.43,1650,1161.49,1647.79,1145.49,1655.6Z"/><path class="cls-2" d="M958.61,1495c-2.22-3.18,2.34-12.59,7.6-18.38,5.53-6.08,13.64-9.86,15.81-6.83,2.43,3.4-3.16,15.17-10.45,21.27C967.15,1494.71,960.56,1497.73,958.61,1495Z"/><path class="cls-2" d="M1034.11,1444.84c-5.38,5.43-12.56,5.52-18.35,5.6-5.44.07-9.54-.14-10.34-3.13-2.46-9.19,6.26-21.84,12.81-29.22,1.72-1.94,10.89-11.71,16.25-10C1046,1411.88,1042,1436.88,1034.11,1444.84Z"/><path class="cls-2" d="M1330.27,1590.54c-2.74.66-15,3.58-25.25-.26-.86-.32-10-4-10.23-10.59-.37-10.69,12.93-18.44,22.62-21,1.36-.36,16.48-4.16,27,2.68,6.16,4,9.09,10.51,6.23,16.65C1346.56,1586.9,1333.17,1589.85,1330.27,1590.54Z"/><path class="cls-2" d="M1329.9,1616.58c-19.68-1.58-21-.22-29.6-1.51-10-1.49-21.28-4.18-28.93-9.42-11.71-8-20.52-21.14-16.11-37.36,3.85-14.17,15.64-25.25,24.88-36.17,9.07-10.7,19.21-23.72,32.68-27.58,11.82-3.38,27-.27,39.32,1.31s24.83,3.2,36.66,7.15c14.11,4.72,29.82,11.36,39,23.66,6.42,8.64,9.56,19.68,7.68,30.36-.51,2.9-.54,3-11.4,24.16-6.91,13.48-8.42,16.23-6.91,20.72,2.78,8.24,11.92,11.34,10.15,16-1.87,4.86-13.89,6.25-23.23,5.5-10.12-.8-14-4.17-28.08-8.86C1361.24,1619.6,1345.36,1617.82,1329.9,1616.58Z"/><path class="cls-2" d="M1437,1647.75c-18.77,5.06-42.45-5.2-60.28-12.58-6.63-2.75-9.61-4.7-16.48-5.69-12.1-1.76-16.3,2-29.4,2-6.59,0-7.34-1.28-25.69-3.61-20.05-2.54-21.21-1.36-26.91-2.13-12.43-1.68-22-9.88-30-18.58-9.92-10.7-17.12-25.85-26.56-37.07-4-4.74-7.57-7.95-14.06-9.84-8-2.32-13.62-.67-21.21-3.21a23.22,23.22,0,0,1-11.34-8.17,23.83,23.83,0,0,1-5.56-11.35c-1.36-7.27,1.82-9.83,3.06-23.41.81-8.85,1.13-14.09-1.45-19.22-3.34-6.65-9-7.79-13.92-11.12-11.78-8-9.76-27.16-15.37-39-6.32-13.35-21.88-17.46-26.82-31.62-4.3-12.32-6.62-29.41,1.52-40.79,5.82-8.14,17.53-14.43,25.11-12.39,12.62,3.38,18.11,22.33,24.1,32.93,5.67,10,6.55,9.64,11.18,18.55,7.19,13.82,10.37,20.72,11.13,27.25.56,4.86-.35,2.91-1.48,17.55-1.59,20.77.1,23.58,1.48,25.11,2.21,2.47,7.1,3.33,17,5.43a242.83,242.83,0,0,0,30.67,4c12.57,1,18,1,20.62.78a126.69,126.69,0,0,0,19.41-3.12c14.12-3.07,28.79-5.71,42.9-6.43a197.15,197.15,0,0,1,54.06,5.07,175.75,175.75,0,0,1,26.46,7.72c20.63,8.1,45.82,17.66,56.56,38.82,9.2,18.14-.42,40.39-10.54,55.81-4.56,7-9.83,12.61-7.78,21.23,2.3,9.63,11.6,14,11.31,22.92A15.69,15.69,0,0,1,1437,1647.75Z"/><path class="cls-2" d="M1160,1229.07c-3.49,2.27-13.34,8.3-25.89,6-4-.73-11.12-2-16.29-8-10.32-12.1-8.89-34-1.69-46.1,7.81-13.11,27.57-16,41.54-9.67,9.4,4.28,19,11.16,22.29,21.23C1184.79,1207.18,1171.61,1221.52,1160,1229.07Z"/><path class="cls-2" d="M1155,1253.53c-14.12,7.7-17,9.23-19.45,10.35-11.88,5.42-13.25,4.18-16.17,7.56-7.51,8.69-6.86,23.85-8.15,34.8-1.55,13.13-1.09,16.28-4.13,24.67-3.17,8.76-6.31,12.12-9.18,17.31-8.12,14.67-8.36,33.41-6.88,49.26a107,107,0,0,0,11.38,39.14c5.33,10.59,7,8.79,13.13,20.61,6.57,12.73,7.17,27.68,13.61,40.25,6.89,13.44,10,9.39,15.59,22.55,4.8,11.2,3.39,23.87,9.79,34.45,3.21,5.31,7.25,11.84,17.52,16.27s15.37.85,26.37,5.58,19.72,12.14,26.89,22.46c2.46,3.54,5.34,8.55,10.43,18.42,8.07,15.66,7.48,17.65,6.83,18.84-8,14.8-33.37,21.72-49.63,26.42-14.69,4.24-32.94,2.87-46,11.22-10.24,6.57-14.76,18.42-25.53,24.59a63.44,63.44,0,0,1-20.59,7.43c-10.26,1.56-15-2-20.94-6.06-7.88-5.36-17.87-9-25-14.81-13.64-11.14-31.92-18.54-48.91-21.53-22.63-4-45.16,2.84-67.14,8.69-9.7,2.58-33,11.58-38.29-1.61-2.13-5.29-1.13-15.23,4.4-25.29,6.78-12.34,18.13-21.53,28.29-31.06,18.57-17.44,36.45-36.66,49.15-59,5-8.82,14.73-30.23,9.95-33.73-6.89-5-34.67,16.54-51.38,17.52-9.81.57-14-2.83-15.41-4-1.71-1.52-4.3-4.86-5.87-19.74-1.21-11.39-1.66-23.83.37-35.16,1.68-9.47,3.15-18.2,8.56-27.07,4.36-7.18,8.64-9.55,19-18.28,16.56-13.89,36.34-32.19,43.5-52.79a107.53,107.53,0,0,0,4.1-17.63c1.79-12.43.39-16,.78-23.05.84-15.42,12.23-30.91,17.43-45.06,3.35-9.7,5.85-22.48,13.78-29.59,4.17-3.75,7.51-4.12,14.77-6.21,13.78-4,32-7,40.28-17.83,9.91-13.07,9-39.78,9.94-56.55.6-11-2.19-29.91,5-38.51,9.89-11.83,31.85-7.47,46-4.13,22.2,5.26,46.61,14,59,35.17,5.59,9.54,8.91,22.7,5.71,33.52-3,10.11-9.83,15.79-18.56,22.33C1179.13,1241.85,1166.41,1247.28,1155,1253.53Z"/><path class="cls-2" d="M977.36,388.73c-2.66,1.46-3.9,6.19-2.63,10.19a22.64,22.64,0,0,0,3.76,7.27c3.59,4.47,7,4.42,9,3.38a3.94,3.94,0,0,0,2.47-2.78c1.17-4.28-.8-13.93-4.82-17.57C982.58,386.86,979.64,387.48,977.36,388.73Z"/><path class="cls-6" d="M930.83,389.3c-.38,6.43-1.53,17.86,3.59,27.85,6,11.7,22.61,16.14,33.48,21.55,14.15,7,20.93,12.49,24.84,15.68,17.13,14,25,37.76,41.68,52.09a78.57,78.57,0,0,0,34.3,16.72c12.91,2.54,24.12-2.83,35.92-7,14.83-5.29,30.54-12.11,42.1-23.23,2.52-2.42,10.73-11.24,8.5-13.71-3.76-4.19-14.7-4-22.13-4.64-24.59-1.95-52,.92-73.33-6.74-17.34-6.25-32.35-18.67-38.92-38.18a319.11,319.11,0,0,1-8.28-31.25c-4.34-19.15-9.05-44-25.82-56.65-10.48-7.92-19.52-10-26.94-7.33C939.17,341.75,932,369.68,930.83,389.3Z"/><path class="cls-2" d="M919.62,362.44C918.08,380.8,908.94,403.37,911,422c2.68,24.71,38,29.67,55.39,37.22,5.66,2.45,10.48,5.12,10.8,5.28,8.45,4.14,13.71,6.14,19.81,11,18.75,14.86,56.59,58.72,58.21,60.81,21.79,28.18,29,39.6,47.8,58.32,7.69,7.68,27.29,27.07,32.53,23.39,3.82-2.68-.81-22.86-10.24-63.11-.64-2.75-2.24-9,.38-15.65,2.48-6.25,8.18-10.57,15.94-15.55,19.55-12.56,42.37-22.33,62.28-35.75,14.48-9.77,40.25-22.52,45.21-37.29,3-8.82-17.58-6.68-23.84-6-34.11,3.76-68.27,12.67-101.75,15-29,2-60.22,3.35-81-21.4-10.89-13-16.2-29.65-20.65-45.73-6.62-23.95-13.27-48-28.32-68.21h0c-9.2-10.16-55.87-47.24-70.25-33.78-8.6,8.05-2.87,30.84-2.39,42.65C921.16,339.84,920.88,347.49,919.62,362.44Z"/><path class="cls-2" d="M904.08,352.45c1.2,22.17-13.54,41.48-13,63.53.34,14.84,6.79,26,18.39,34.92,7.1,5.45,14.69,8.3,22.69,10.83,29,9.19,58.37,17.34,77.06,43.11,12.78,17.63,24.2,36.82,37.16,54.12,24.36,32.52,54.44,63.13,77.25,97.37,6.71,10.06,19.6,40.49,28,38.4,8.9-2.23,11.62-29.81,11.76-42.86.3-28.45-8.52-55.72-13.89-83-4.79-24.31,15.48-34.81,34-45.45,25.77-14.83,67.63-42.25,99.43-35.36,4.27.92,15.76,4.1,15.65,15.14-.3,29.62-52.29,61.35-35.6,93.38,11.16,21.4,39.12,34.71,62.9,31.17,20.38-3,34.15-19.08,45.18-35.07,18.34-26.59,28.5-58.32,48.46-84.39,13.38-17.46,29.19-34.19,41.35-52.35,13.6-20.29,32.33-48.67,22.29-74.71a34.5,34.5,0,0,0-24.83-21c-9.77-2.17-21.13,3.84-29.75,7.33-23.18,8.06-46.8,14.38-69.78,23.09-50.21,19-102.11,30.48-154.75,40.5-42.7,8.13-107,28.12-146.92.35-24.06-16.71-28.43-46.84-35.85-73-10.49-37-28.37-63.07-58.82-85.11-10.57-7.65-21.16-13.35-35-12.48-8.09.5-17,1.56-25.58,9.09a45.43,45.43,0,0,0-14.42,26.28C883.78,316.66,903,332.48,904.08,352.45Z"/><path class="cls-2" d="M1315.89,593.45c12.85,1,26.29-13.42,32.72-24.32,4.27-7.22,11.63-29.58,1.8-31.88-12.85-3-37,18.19-43,32.74C1303.36,579.67,1306.9,592.72,1315.89,593.45Z"/><path class="cls-2" d="M1393.23,423.15c-8.38,10.86-9.77,24.73-8.47,37.94,1,10.06,2,17.38,9.25,17.12,21.5-.76,44.17-26.64,55.12-44.1,6.38-10.19,13.48-25.6,8.82-36.06C1448.07,375.91,1402,411.76,1393.23,423.15Z"/><path class="cls-2" d="M1030,140.37c-3.14,2.71-18,14.26-14.27,18.83.31.38,3.48,4.1,21.84.2,23.3-5,50.16-13.9,68-30,1.48-1.33,15.36-18,1.52-23.22-12.54-4.76-26.38,1-37.7,6.23C1055.34,119.06,1042.17,129.85,1030,140.37Z"/><path class="cls-2" d="M992.4,158.47c-3.17,3.73-12.26,14.09-4.31,16.65,15.34,5,37.56-2.63,53.59-6.51,23.3-5.64,47.31-12.7,68.37-23.28,18.14-9.1,56.29-32.51,36.11-57.38-10.76-13.26-31-15-46.65-14-13.48.8-27.92,7.73-38.54,16.2C1036.77,109.38,1012.71,134.63,992.4,158.47Z"/><path class="cls-2" d="M958.27,164.28c-5.24,12.07-11.83,14.38-13.51,19.13-3.07,8.71,5.09,11.42,8.39,12.11,27.34,5.69,61.45-4.59,89.45-9.43,35.75-6.17,70.84-15.67,103.25-30.32,20.94-9.47,45.79-21.8,57.18-43.74,6.17-11.89,1.64-25.7-6.25-35.47-8.17-10.11-21.86-17.3-34.12-21.14-19.88-6.22-41.05-12.3-61.54-15-14.07-1.89-29.36-3.37-42.82,1.26-11.61,4-22.86,11.92-33.53,18.43C1012.2,67.74,999,77.79,984.74,82c-12,3.48-26.88.12-37.56,6.38C937.5,94,930.75,106.88,933.53,118c2.22,8.91,12.07,10.57,21.55,17.54C965.21,143,962,155.66,958.27,164.28Z"/><path class="cls-2" d="M898.32,100.39c-15.15,21.31,8.14,39.17,26.72,47,6.13,2.58,11.32,3.6,10.92,7.29-.9,8.21-14.17,16.57-19.91,23.21-3.57,4.13-.22,3.56-4,13.87-4.11,11.25-8.21,14-8.11,17,.33,10.7,28.28,6.32,35.73,5.9,29.83-1.68,59.79-6,85.76,6.87,9.64,4.79,14.45,11.76,15.35,22.49,1,12.52-1.51,25.35.43,38.11a145.09,145.09,0,0,0,7.66,28.65c1.39,4,4.5,13.82,9.93,20.49,6.54,8,7.9,4.76,25.75,3.59,11.62-.77,20.07-3.43,29.46-.63,11.24,3.34,18.1,13.24,28.51,17.67,29.12,12.42,77-24.8,103.89-33.12,30.23-9.35,64.28-4.2,94.63-15.45,13.34-4.94,47.74-14.88,42.76-33.3-3.52-13-15.27-25.37-25.86-34.33-13.57-11.47-33.65-7.47-49.56-7-14.28.39-14.13-1-28.47.91-16.57,2.16-34.18,4.58-49,12.14-12.64,6.45-24.26,16.76-36.33,24.32s-45.22,30.81-54.9,24.09c-6.32-4.39-4.61-21.63-3.4-31.58,2.31-19,9.08-38.22,17.91-56a267.25,267.25,0,0,1,18.49-32.29c6.39-9.34,13.29-18.64,19.61-27.91,9.77-14.34,22.74-32.07,22.46-49.29-.22-14.06-4.49-25-18.7-31.67-5.4-2.54-13-5.56-25.52-9.06-28.75-8-57.85-17-86.87-23.65-23.51-5.41-43.85,2.09-62.86,15.26C1009.13,52,997.74,58.78,984.4,63.1c-15.63,5.05-33.17,2.17-48.94,8.76C921.23,77.81,907.09,88.06,898.32,100.39Z"/><path class="cls-2" d="M1465.4,139.07c.88,3.16,4,12.18,18.24,19.47,4.57,2.33,13,6.77,23.45,6.85,13.75.1,36.89-6.9,40.38-22.85,3.54-16.17-18-29.11-30.35-33.5-11.45-4.07-24.27-5.17-35.95-1.51C1467.88,111.69,1462,126.89,1465.4,139.07Z"/><path class="cls-2" d="M1445.71,153.35c5.31,13.35,7.08,17.28,8.45,20,6.66,12.88,9.76,14,9.65,19.38-.27,14.08-14,27.67-21.81,39-8.47,12.26-11.19,13.89-12.63,23-1.51,9.47,1.08,15,2,21.35,2.75,19-13,28.71-27.79,35.21-25.89,11.34-54.42,19.23-81.35,28.31-22.38,7.55-45.85,13.07-68,21.07-37.79,13.63-77.41,39.06-116.74,43.09-20.83,2.14-37-2.63-54.06-14-16.87-11.25-28.2-23.41-36.6-42.44-6.82-15.43-11.91-32.24-17.12-48.55-5-15.69-8.24-32.87-16.05-47.31-10.64-19.69-35.88-24.18-56.53-23.6-14.39.4-28.82,3.6-42.57,7-13.95,3.48-30.67,6.54-42.91,14.36-23.14,14.79-28.63,46.53-17.37,70.41,6.94,14.71,25.49,28.13,26.14,45.39.51,13.66-8,26.47-8.16,40.51s1,26.25,1.23,28.42c1.37,13.51,6.66,16.11,13.59,19.93,12.83,7.07,25.19,15,39,20.21,41.25,15.63,66.66,36.21,91.14,73.64,28.62,43.74,54.27,89.43,80.79,134.52,8.28,14.06,28,54.76,49.51,51.47,7-1.08,14.17-7.83,18.41-20.57,5.84-17.56,5.67-37.19,5-55.61-.88-25-8.9-61.32,3.17-84,7-13.23,29.26-30.5,41.93-23,8.31,4.93,5.52,24,7.36,34.61,3.71,21.41,12.38,39.66,27.19,53.31a93.1,93.1,0,0,0,37.49,21c18.93,5.22,39.89,3,59,1.24,25.74-2.41,54.08-5,78.59-15,13.77-5.61,30.26-12.83,37-27.15,6.44-13.75,4.08-31.3,5.57-45.69,3.91-37.79,25.65-83.53,50.39-113.06,9-10.69,18.94-20.74,18.94-20.74,7.75-8.28,17.23-14.35,25.09-22.34,15.85-16.11,14.14-54,18.08-74.36,3.47-16.6,9.74-35.07,4.15-51.82-3.17-9.49-7.62-13.84-15.86-24.68-13.62-17.91-36.13-41.09-36.89-62.41-.58-16.48,22.65-33.41,34.9-43.5,7.73-6.37,23.26-15.42,22-26.45-2-16.95-25.84-28.76-39.93-36.72-22.7-12.83-48.42-25.45-75.25-16.93-12.15,3.85-24.14,10.39-32.49,19.74-7,7.78-7.08,15.48-6.19,23.4C1436.24,132.89,1441.77,143.42,1445.71,153.35Z"/><path class="cls-2" d="M1615.88,1035.53c7.1,3.35,10.83,8,8.13,10.23-1.65,1.33-4.49,2.5-9.27,2.6-9.46.19-20.54-3.18-29-7.23-3.82-1.82-7.39-3.45-9.1-5.42-4.15-4.8,4.72-8.74,17.07-7.19C1601.68,1029.52,1609.76,1032.65,1615.88,1035.53Z"/><path class="cls-2" d="M1709.52,1057.21c2.37,5.33,6.22,15.3-1.65,20.72-14.47,10-41.53,4.94-58.44,3.52a640.26,640.26,0,0,1-75-11.3c-33.43-6.87-66.83-14.15-100.5-19.82-19.86-3.35-41.71-8.13-61.76-5.1-24,3.61-19,6.94-22.23,7-12.08.28-26.25-10.81-36.22-16.36-13-7.24-26.94-15.1-36.63-26.79-2.14-2.58-8.85-10.45-9.21-16.15-.86-13.58,19.24-29.85,33.24-28.68,27.93,2.34,55.8,12.35,83.93,16.4,19.12,2.76,38.43,5.07,57.59,6.14,34.27,1.93,69.15-1.55,103.69.63,17,1.08,34.87,1.73,50.78,8.11C1665.16,1006.8,1697,1029,1709.52,1057.21Z"/><path class="cls-2" d="M1724.55,1036.06c7.94,13.38,17.42,25,26.84,37.38,3.72,4.9,8,8.44,6.75,13-5.65,20.46-77.9,13-99.05,11.62-11.66-.79-23.53-2.25-24.33-2.36-20.67-2.8-41.4-7-62-10.89-25.81-4.83-51.75-9.73-77.91-12.62-19.48-2.16-48.79-6.83-65.78,5.49-21.29,15.45,4.39,59-.93,60-6.63,1.23-29.71-37.73-42.81-52-14.6-15.92-32.6-29.1-51.12-40.51-14.25-8.79-29.58-15.73-42.89-26-8.41-6.51-20.32-14-24-24.06-6.66-17.93,28.66-35.65,41.08-41.73,19.47-9.54,37.56-4.94,58.41-1.57,28.12,4.54,56.37,9.83,84.41,12.88,37.79,4.1,77.67,6.19,115.84.21h0c29.09-4.25,57.28-11.26,86.07-16.79,8.55-1.64,17-3.47,24.84,1.34,17.82,11,22.59,37.63,30,55.36C1712.42,1015.55,1718.6,1026,1724.55,1036.06Z"/><path class="cls-2" d="M1751,1027.46c7,14.41,19.55,23.59,32.8,32.39,7.56,5,18.29,9.83,19.16,19,1.54,16.05-26,24.82-39,27.82-13.83,3.19-28.4,4.29-42.68,4.17-58.65-.47-117.31-13.95-175-14.51-22.88-.22-48,1-67.22,12.37-23,13.6-24.14,31.61-18.4,57.22,1.81,8.11,7.22,27.74-.87,29.17-10.77,1.9-28.14-18.2-37.58-27.84-20.68-21.1-34-50.1-53.2-71.78-17-19.13-37.37-34.06-60.66-45.71-13.88-6.94-37.55-20.49-51.42-8.53a19.44,19.44,0,0,0-6.77,14.47c-.37,21.75,25.07,37.8,29.61,59.22,2.76,13-4,28.8-18.85,28.49-12.53-.26-24.65-8.3-34.48-15.78-14.16-10.77-23.87-29.18-35.69-42.08-7.42-8.1-16.52-15-24.43-22.63-9.47-9.18-27.84-21.93-26.56-36.77.85-10,7.83-18.6,16-24.2,7.67-5.29,13.95-4.32,25.65-6.83,12.66-3.15,25.8-6.33,37.89-9.72,22.36-6.26,37.63-20.07,54.64-36.25,23.32-22.19,40.69-23.72,71.23-16.72,43.59,10,85.82,17.72,130.5,18.26,44.51.54,90.8-5.54,128.11-29.89,14.58-9.52,30.64-16.3,48.24-16.59,16-.26,30.08,2.74,43.76,10.09,15.77,8.47,30.33,23.61,40.23,38.79,8.76,13.43,12.75,23.92,12.18,40.11C1747.65,1005.74,1745.39,1015.9,1751,1027.46Z"/><path class="cls-2" d="M1251.71,1119.77c-4.65,2.61-15.33-3.36-21.18-10-6.15-7-8.88-17.26-4.71-20.14,4.67-3.22,18,4,24.08,13.6C1253.55,1109,1255.77,1117.49,1251.71,1119.77Z"/><path class="cls-2" d="M1206.74,1021.08c5.26,6.5,4,16.63,3,24.51-1,7.39-1.92,12.81-5.69,14.19-10,3.65-23.51-6.34-30.48-14.28-1.79-2-10.56-12.26-7.65-20C1171.26,1011.32,1197.11,1009.18,1206.74,1021.08Z"/><path class="cls-2" d="M1625.25,775.54c1.77,3.29,10,18.9-1.1,27.09-8.62,6.37-19.68,6.45-29.85,5.72-17.08-1.22-40.18-12.63-45.8-29.74-3-9.21,1.27-21.94,10.49-27.32,10.64-6.22,24.31-6.81,35.9-2.78C1607.73,753,1618.83,763.65,1625.25,775.54Z"/><path class="cls-2" d="M1670.78,799.42c-1,13.21-6.23,26.51-19.51,32-26.43,10.87-62.92,5.63-89.87-1.18-18.3-4.63-37.32-10.77-52.74-21.25-10.45-7.1-20.51-15.13-26.44-27-5.07-10.17-6-22.16-3.47-33.23,5.61-24.56,21.41-49.4,43.85-61.48,20.42-11,43.4-7.93,64.16-.39,23.67,8.61,46.82,23.45,61.79,43.46C1663.92,750.84,1672.78,773.52,1670.78,799.42Z"/><path class="cls-2" d="M1685.48,785.3c1.15,10.05,4.74,22.73,1.75,32.78-3.77,12.72-17.61,20.41-29.44,23.94-36.38,10.86-80.18,3.55-116.66-5.55-27-6.73-51-19.51-74.35-34.21-12-7.55-36.23-20-34.75-34.7,1.07-10.67,15-24.45,21.42-34.36,7.3-11.34,13.32-24,20.77-35.5,10.65-16.42,21.3-32.78,36.37-42.52,12.26-7.92,28.38-12.39,43.75-10,13.93,2.18,28.73,9.78,42.05,15.19,11.35,4.6,25.33,13.22,37.13,11.73,11.09-1.41,11.16-14.26,18.5-10.66,11.07,5.41,19.24,21.48,24.33,32.9,5,11.12,3.64,23.49,3.49,35.4C1679.61,748.23,1683.41,767.08,1685.48,785.3Z"/><path class="cls-2" d="M1672.92,652.65c16.52,21.59,26,52.27,25.23,79.24-.23,8-2,11.5.15,20,3.51,13.82,14.07,24.59,18.94,37.79,2.91,7.87,2.08,9.16.28,28.55-2,21.18-1,22-3.81,27.06-9.85,17.91-46,15.76-62.67,16.66-45.11,2.42-91.24-2.48-136.34-2.6-15,0-30.25-.08-45.13,2.64-12,2.21-23.26,7.27-35.45,9-11.92,1.66-24,1.94-36,2-11.26,0-22.67-.3-33.9-1.33-14.92-1.38-29.29-6.21-43.86-9.45-9.56-2.14-19.94-5.22-29.87-5-10.55.27-13.71,4.06-17.76,8.2-9.41,9.62-25.38,6-36.66,12-15,8-22.82,26.69-38,33.43-9.81,4.35-26.93,7.63-30.1-5.54-2.86-11.91,1.53-27.14,8-37.92,8.19-13.58,23.43-18.55,37-25.64,10.28-5.37,10.28-6.12,18.6-9.37,12.92-5,18.69-6,23-5,3.23.74,1.44,1,10,5.94,12.16,7,18.81,8,21.54,7.71,4.39-.51,9-3.39,20.91-8.45s23.92-10.58,35.61-16.35c14.3-7,19.05-10.46,21.24-12.21a54,54,0,0,0,12.22-13.72c7.31-11,14.59-22.23,22-33,10.53-15.37,22.87-30.1,33.84-45.31,5.94-8.25,11.84-16.77,17.76-25,15.41-21.45,30.1-50.19,53.94-62.88,25.56-13.6,56.8-2.85,80.91,9.36,10.83,5.48,23,13.16,35.57,11.71,12.91-1.5,13.88-13.86,25.89-11.59C1656.75,635.58,1666.27,644,1672.92,652.65Z"/><path class="cls-2" d="M1107.88,803.2a94.61,94.61,0,0,1-11.61,36.72c-2.85,5.18-8,14.66-14.7,19.19-12.82,8.68-26.06-3.59-31-15.39-7.37-17.51.19-40.09,10.55-54.72,6.5-9.18,16.94-20.44,28.65-21.94C1107.89,764.75,1109,791.14,1107.88,803.2Z"/><path class="cls-2" d="M1121,818.25c-2,10.16-4,20.39-6.48,30.41-4.65,18.57-6.29,20-6.45,25.79-.29,10.53,4.87,14.72,14.23,24,6.57,6.51,8.82,6.45,12.07,13.09,3.39,6.93,3.52,12.49,5.38,17.7,5.2,14.53,19.93,16.78,33.72,15.74,14.78-1.12,27.75-8.68,39.74-16.53,11.71-7.66,10.67-10,23.7-18,13.18-8.1,28.45-9.32,42-15.41,11.44-5.13,17.73-10.77,30.25-11.95,26.56-2.51,57.42,9.85,85.74,12.89,22.65,2.44,45.19,3.34,66.79-2.29,8.15-2.12,12.63-8.54,19.69-12.24,8.41-4.42,14.52-5.17,25-6.61,33-4.51,67.36-2.84,101-1.88,21.89.62,43.82,2.27,65.67,3.47,18.78,1,40.17-.44,57.77,4.53,33.26,9.41,55.62,64.67,63,96.12,3.78,16-3.86,44.5,6.21,58.52,6.55,9.12,21.47,10.71,25.53,20.64,2.82,6.89,3.13,17.08,3.18,18.92.3,12.43-7.59,22.54-18.39,27.93-23.25,11.59-49.85,16.48-75.43,17.63-58.53,2.64-122.58-3.84-180.34,5-32.9,5.07-64.66,17-68.93,54.57-1.2,10.55,5.61,37.11-9.5,39.45-10.83,1.67-21.73-4.32-30.41-9.46-14.54-8.62-24.93-25.6-35.35-39.37-21.36-28.23-44.86-55.27-72.78-76.59-9.27-7.08-36.5-25.65-43.71-17.66-4.43,4.91,2.08,18.61,4.87,26.54,4.85,13.77,9.39,27.94,6.93,42.4-2,11.94-8.27,16.15-10.39,17.52-2.66,1.71-8.46,4.07-28.57,3.86-14.39-.16-29.45-1.08-43.37-4.2-9.21-2.06-20.47-5.49-28.22-11.28-6.82-5.09-8.74-9.61-16.36-21.21-11.84-18-28.15-41.21-48.37-49.59a98.52,98.52,0,0,0-17.25-4.91c-12.26-2.35-16.15-1.15-22.69-2.56-14.65-3.16-22.85-23.35-29-34.6-5.33-10.21-10.3-21.38-10-33.08.19-7.75,1.48-12.51,4.16-23.8,5.07-21.36,14.22-44.68,13.35-66.17-.63-15.58-15.54-30.22-26.41-39.33-7.2-6-21.29-10.26-25.38-20.06-7.29-17.47,4.58-40.45,11.89-55.68,12.86-26.79,29.27-51.23,56.12-63.11,9.65-4.27,25.29-6.29,34.59,1.15,7.66,6.14,9.1,20.16,8.75,28.87C1128,783.94,1124.14,801.69,1121,818.25Z"/><line class="cls-2" x1="753" y1="814.92" x2="751.91" y2="804.22"/><line class="cls-2" x1="424.26" y1="1346.98" x2="432.96" y2="1345.28"/><line class="cls-2" x1="454.01" y1="1342.91" x2="463.24" y2="1341.73"/></svg>